<mxfile host="app.diagrams.net" modified="2022-07-05T13:27:22.318Z" agent="5.0 (Windows NT 10.0; Win64; x64) AppleWebKit/537.36 (KHTML, like Gecko) Chrome/103.0.0.0 Safari/537.36" etag="KigIJDBLDHzbeAI8XaLJ" version="16.6.2" type="github" pages="2">
  <diagram id="2RyU8XgS3Ou342YZrbgs" name="GF Doors">
    <mxGraphModel dx="1328" dy="710" grid="1" gridSize="10" guides="1" tooltips="1" connect="1" arrows="1" fold="1" page="1" pageScale="1" pageWidth="1169" pageHeight="827" math="0" shadow="0">
      <root>
        <mxCell id="0" />
        <mxCell id="1" parent="0" />
        <mxCell id="-kedIc6O_IsfXzTdyW87-51" value="" style="verticalLabelPosition=bottom;html=1;verticalAlign=top;align=center;shape=mxgraph.floorplan.doorOverhead;shadow=1;sketch=1;gradientColor=none;" vertex="1" parent="1">
          <mxGeometry x="147.5" y="480" width="90" height="220" as="geometry" />
        </mxCell>
        <mxCell id="-kedIc6O_IsfXzTdyW87-52" value="" style="verticalLabelPosition=bottom;html=1;verticalAlign=top;align=center;shape=mxgraph.floorplan.doorOverhead;shadow=1;sketch=1;gradientColor=none;" vertex="1" parent="1">
          <mxGeometry x="227.5" y="480" width="90" height="220" as="geometry" />
        </mxCell>
        <mxCell id="-kedIc6O_IsfXzTdyW87-2" value="" style="verticalLabelPosition=bottom;html=1;verticalAlign=top;align=center;shape=mxgraph.floorplan.doorOverhead;gradientColor=none;shadow=1;sketch=1;" vertex="1" parent="1">
          <mxGeometry x="90" y="84" width="160" height="286" as="geometry" />
        </mxCell>
        <mxCell id="-kedIc6O_IsfXzTdyW87-6" value="3&#39;-6&quot;" style="shape=dimension;direction=west;whiteSpace=wrap;html=1;align=center;points=[];verticalAlign=top;spacingTop=-8;labelBackgroundColor=#ffffff" vertex="1" parent="1">
          <mxGeometry x="100" y="50" width="140" height="40" as="geometry" />
        </mxCell>
        <mxCell id="-kedIc6O_IsfXzTdyW87-7" value="7&#39;-0&quot;" style="shape=dimension;direction=north;whiteSpace=wrap;html=1;align=right;points=[];verticalAlign=middle;labelBackgroundColor=#ffffff;shadow=0;sketch=0;gradientColor=none;" vertex="1" parent="1">
          <mxGeometry x="260" y="84" width="40" height="286" as="geometry" />
        </mxCell>
        <mxCell id="-kedIc6O_IsfXzTdyW87-8" value="North&lt;br&gt;Main Door&lt;br&gt;&amp;amp;&lt;br&gt;Pooja Door&lt;br&gt;(2)" style="text;html=1;resizable=0;autosize=1;align=center;verticalAlign=middle;points=[];fillColor=none;strokeColor=none;rounded=0;shadow=1;sketch=1;" vertex="1" parent="1">
          <mxGeometry x="130" y="140" width="80" height="80" as="geometry" />
        </mxCell>
        <mxCell id="-kedIc6O_IsfXzTdyW87-12" value="" style="verticalLabelPosition=bottom;html=1;verticalAlign=top;align=center;shape=mxgraph.floorplan.doorOverhead;shadow=1;sketch=1;gradientColor=none;" vertex="1" parent="1">
          <mxGeometry x="355" y="84" width="125" height="206" as="geometry" />
        </mxCell>
        <mxCell id="-kedIc6O_IsfXzTdyW87-13" value="3&#39;-0&quot;" style="shape=dimension;direction=west;whiteSpace=wrap;html=1;align=center;points=[];verticalAlign=top;spacingTop=-8;labelBackgroundColor=#ffffff" vertex="1" parent="1">
          <mxGeometry x="367.5" y="50" width="100" height="40" as="geometry" />
        </mxCell>
        <mxCell id="-kedIc6O_IsfXzTdyW87-14" value="5&#39;-0&quot;" style="shape=dimension;direction=north;whiteSpace=wrap;html=1;align=right;points=[];verticalAlign=middle;labelBackgroundColor=#ffffff;shadow=0;sketch=0;gradientColor=none;" vertex="1" parent="1">
          <mxGeometry x="490" y="84" width="40" height="206" as="geometry" />
        </mxCell>
        <mxCell id="-kedIc6O_IsfXzTdyW87-15" value="North&lt;br&gt;Window&lt;br&gt;(1)" style="text;html=1;resizable=0;autosize=1;align=center;verticalAlign=middle;points=[];fillColor=none;strokeColor=none;rounded=0;shadow=1;sketch=1;" vertex="1" parent="1">
          <mxGeometry x="387.5" y="155" width="60" height="50" as="geometry" />
        </mxCell>
        <mxCell id="-kedIc6O_IsfXzTdyW87-16" value="" style="verticalLabelPosition=bottom;html=1;verticalAlign=top;align=center;shape=mxgraph.floorplan.doorOverhead;shadow=1;sketch=1;gradientColor=none;" vertex="1" parent="1">
          <mxGeometry x="620" y="470" width="110" height="246" as="geometry" />
        </mxCell>
        <mxCell id="-kedIc6O_IsfXzTdyW87-17" value="" style="verticalLabelPosition=bottom;html=1;verticalAlign=top;align=center;shape=mxgraph.floorplan.doorOverhead;shadow=1;sketch=1;gradientColor=none;" vertex="1" parent="1">
          <mxGeometry x="720" y="470" width="110" height="246" as="geometry" />
        </mxCell>
        <mxCell id="-kedIc6O_IsfXzTdyW87-18" value="" style="verticalLabelPosition=bottom;html=1;verticalAlign=top;align=center;shape=mxgraph.floorplan.doorOverhead;shadow=1;sketch=1;gradientColor=none;" vertex="1" parent="1">
          <mxGeometry x="820" y="470" width="110" height="246" as="geometry" />
        </mxCell>
        <mxCell id="-kedIc6O_IsfXzTdyW87-19" value="" style="verticalLabelPosition=bottom;html=1;verticalAlign=top;align=center;shape=mxgraph.floorplan.doorOverhead;shadow=1;sketch=1;gradientColor=none;" vertex="1" parent="1">
          <mxGeometry x="520" y="470" width="110" height="246" as="geometry" />
        </mxCell>
        <mxCell id="-kedIc6O_IsfXzTdyW87-20" value="5&#39;-0&quot;" style="shape=dimension;direction=north;whiteSpace=wrap;html=1;align=right;points=[];verticalAlign=middle;labelBackgroundColor=#ffffff;shadow=0;sketch=0;gradientColor=none;" vertex="1" parent="1">
          <mxGeometry x="980" y="470" width="40" height="246" as="geometry" />
        </mxCell>
        <mxCell id="-kedIc6O_IsfXzTdyW87-21" value="2&#39;-0&quot;" style="shape=dimension;direction=west;whiteSpace=wrap;html=1;align=center;points=[];verticalAlign=top;spacingTop=-8;labelBackgroundColor=#ffffff" vertex="1" parent="1">
          <mxGeometry x="530" y="440" width="90" height="40" as="geometry" />
        </mxCell>
        <mxCell id="-kedIc6O_IsfXzTdyW87-22" value="2&#39;-0&quot;" style="shape=dimension;direction=west;whiteSpace=wrap;html=1;align=center;points=[];verticalAlign=top;spacingTop=-8;labelBackgroundColor=#ffffff" vertex="1" parent="1">
          <mxGeometry x="630" y="440" width="90" height="40" as="geometry" />
        </mxCell>
        <mxCell id="-kedIc6O_IsfXzTdyW87-23" value="2&#39;-0&quot;" style="shape=dimension;direction=west;whiteSpace=wrap;html=1;align=center;points=[];verticalAlign=top;spacingTop=-8;labelBackgroundColor=#ffffff" vertex="1" parent="1">
          <mxGeometry x="730" y="440" width="90" height="40" as="geometry" />
        </mxCell>
        <mxCell id="-kedIc6O_IsfXzTdyW87-24" value="2&#39;-0&quot;" style="shape=dimension;direction=west;whiteSpace=wrap;html=1;align=center;points=[];verticalAlign=top;spacingTop=-8;labelBackgroundColor=#ffffff" vertex="1" parent="1">
          <mxGeometry x="830" y="440" width="90" height="40" as="geometry" />
        </mxCell>
        <mxCell id="-kedIc6O_IsfXzTdyW87-25" value="Surejya Room Window" style="text;html=1;resizable=0;autosize=1;align=center;verticalAlign=middle;points=[];fillColor=none;strokeColor=none;rounded=0;shadow=0;sketch=0;" vertex="1" parent="1">
          <mxGeometry x="670" y="570" width="140" height="20" as="geometry" />
        </mxCell>
        <mxCell id="-kedIc6O_IsfXzTdyW87-26" value="" style="verticalLabelPosition=bottom;html=1;verticalAlign=top;align=center;shape=mxgraph.floorplan.doorOverhead;shadow=1;sketch=1;gradientColor=none;" vertex="1" parent="1">
          <mxGeometry x="595" y="84" width="95" height="166" as="geometry" />
        </mxCell>
        <mxCell id="-kedIc6O_IsfXzTdyW87-27" value="2&#39;-0&quot;" style="shape=dimension;direction=west;whiteSpace=wrap;html=1;align=center;points=[];verticalAlign=top;spacingTop=-8;labelBackgroundColor=#ffffff" vertex="1" parent="1">
          <mxGeometry x="600" y="50" width="80" height="40" as="geometry" />
        </mxCell>
        <mxCell id="-kedIc6O_IsfXzTdyW87-28" value="4&#39;-0&quot;" style="shape=dimension;direction=north;whiteSpace=wrap;html=1;align=right;points=[];verticalAlign=middle;labelBackgroundColor=#ffffff;shadow=0;sketch=0;gradientColor=none;" vertex="1" parent="1">
          <mxGeometry x="710" y="84" width="40" height="166" as="geometry" />
        </mxCell>
        <mxCell id="-kedIc6O_IsfXzTdyW87-29" value="South &amp;amp; West&lt;br&gt;Windows&lt;br&gt;(5)" style="text;html=1;resizable=0;autosize=1;align=center;verticalAlign=middle;points=[];fillColor=none;strokeColor=none;rounded=0;shadow=0;sketch=0;" vertex="1" parent="1">
          <mxGeometry x="595" y="155" width="90" height="50" as="geometry" />
        </mxCell>
        <mxCell id="-kedIc6O_IsfXzTdyW87-33" value="" style="verticalLabelPosition=bottom;html=1;verticalAlign=top;align=center;shape=mxgraph.floorplan.doorOverhead;shadow=1;sketch=1;gradientColor=none;" vertex="1" parent="1">
          <mxGeometry x="67.5" y="480" width="90" height="220" as="geometry" />
        </mxCell>
        <mxCell id="-kedIc6O_IsfXzTdyW87-34" value="5&#39;-0&quot;" style="shape=dimension;direction=north;whiteSpace=wrap;html=1;align=right;points=[];verticalAlign=middle;labelBackgroundColor=#ffffff;shadow=0;sketch=0;gradientColor=none;" vertex="1" parent="1">
          <mxGeometry x="327.5" y="480" width="40" height="220" as="geometry" />
        </mxCell>
        <mxCell id="-kedIc6O_IsfXzTdyW87-35" value="2&#39;-0&quot;" style="shape=dimension;direction=west;whiteSpace=wrap;html=1;align=center;points=[];verticalAlign=top;spacingTop=-8;labelBackgroundColor=#ffffff" vertex="1" parent="1">
          <mxGeometry x="77.5" y="450" width="70" height="40" as="geometry" />
        </mxCell>
        <mxCell id="-kedIc6O_IsfXzTdyW87-36" value="2&#39;-0&quot;" style="shape=dimension;direction=west;whiteSpace=wrap;html=1;align=center;points=[];verticalAlign=top;spacingTop=-8;labelBackgroundColor=#ffffff" vertex="1" parent="1">
          <mxGeometry x="157.5" y="450" width="70" height="40" as="geometry" />
        </mxCell>
        <mxCell id="-kedIc6O_IsfXzTdyW87-37" value="2&#39;-0&quot;" style="shape=dimension;direction=west;whiteSpace=wrap;html=1;align=center;points=[];verticalAlign=top;spacingTop=-8;labelBackgroundColor=#ffffff" vertex="1" parent="1">
          <mxGeometry x="237.5" y="450" width="70" height="40" as="geometry" />
        </mxCell>
        <mxCell id="-kedIc6O_IsfXzTdyW87-40" value="" style="verticalLabelPosition=bottom;html=1;verticalAlign=top;align=center;shape=mxgraph.floorplan.doorOverhead;shadow=1;sketch=1;gradientColor=none;" vertex="1" parent="1">
          <mxGeometry x="800" y="84" width="125" height="76" as="geometry" />
        </mxCell>
        <mxCell id="-kedIc6O_IsfXzTdyW87-41" value="3&#39;-0&quot;" style="shape=dimension;direction=west;whiteSpace=wrap;html=1;align=center;points=[];verticalAlign=top;spacingTop=-8;labelBackgroundColor=#ffffff" vertex="1" parent="1">
          <mxGeometry x="812.5" y="50" width="100" height="40" as="geometry" />
        </mxCell>
        <mxCell id="-kedIc6O_IsfXzTdyW87-42" value="2&#39;-0&quot;" style="shape=dimension;direction=north;whiteSpace=wrap;html=1;align=right;points=[];verticalAlign=middle;labelBackgroundColor=#ffffff;shadow=0;sketch=0;gradientColor=none;" vertex="1" parent="1">
          <mxGeometry x="940" y="84" width="40" height="76" as="geometry" />
        </mxCell>
        <mxCell id="-kedIc6O_IsfXzTdyW87-43" value="Pooja &amp;amp; Kitchen&lt;br&gt;Window&lt;br&gt;(2)" style="text;html=1;resizable=0;autosize=1;align=center;verticalAlign=middle;points=[];fillColor=none;strokeColor=none;rounded=0;shadow=0;sketch=0;" vertex="1" parent="1">
          <mxGeometry x="812.5" y="97" width="100" height="50" as="geometry" />
        </mxCell>
        <mxCell id="-kedIc6O_IsfXzTdyW87-45" value="" style="verticalLabelPosition=bottom;html=1;verticalAlign=top;align=center;shape=mxgraph.floorplan.doorOverhead;shadow=1;sketch=1;gradientColor=none;" vertex="1" parent="1">
          <mxGeometry x="800" y="239" width="125" height="61" as="geometry" />
        </mxCell>
        <mxCell id="-kedIc6O_IsfXzTdyW87-46" value="3&#39;-0&quot;" style="shape=dimension;direction=west;whiteSpace=wrap;html=1;align=center;points=[];verticalAlign=top;spacingTop=-8;labelBackgroundColor=#ffffff" vertex="1" parent="1">
          <mxGeometry x="812.5" y="205" width="100" height="40" as="geometry" />
        </mxCell>
        <mxCell id="-kedIc6O_IsfXzTdyW87-47" value="1&#39;-6&quot;" style="shape=dimension;direction=north;whiteSpace=wrap;html=1;align=right;points=[];verticalAlign=middle;labelBackgroundColor=#ffffff;shadow=0;sketch=0;gradientColor=none;" vertex="1" parent="1">
          <mxGeometry x="940" y="239" width="40" height="61" as="geometry" />
        </mxCell>
        <mxCell id="-kedIc6O_IsfXzTdyW87-48" value="Bathroom &amp;amp; Store&lt;br&gt;Ventilator&lt;br&gt;(4)" style="text;html=1;resizable=0;autosize=1;align=center;verticalAlign=middle;points=[];fillColor=none;strokeColor=none;rounded=0;shadow=0;sketch=0;" vertex="1" parent="1">
          <mxGeometry x="807.5" y="245" width="110" height="50" as="geometry" />
        </mxCell>
        <mxCell id="-kedIc6O_IsfXzTdyW87-39" value="Dining Room&lt;br&gt;Window&lt;br&gt;(1)" style="text;html=1;resizable=0;autosize=1;align=center;verticalAlign=middle;points=[];fillColor=none;strokeColor=none;rounded=0;shadow=0;sketch=0;" vertex="1" parent="1">
          <mxGeometry x="152.5" y="565" width="80" height="50" as="geometry" />
        </mxCell>
      </root>
    </mxGraphModel>
  </diagram>
  <diagram name="GF Windows" id="BZlnHWajwyw8XFA7sFdJ">
    <mxGraphModel dx="1328" dy="710" grid="1" gridSize="10" guides="1" tooltips="1" connect="1" arrows="1" fold="1" page="1" pageScale="1" pageWidth="1169" pageHeight="827" math="0" shadow="0">
      <root>
        <mxCell id="9AlaRydBbtmJNh-A9zOE-0" />
        <mxCell id="9AlaRydBbtmJNh-A9zOE-1" parent="9AlaRydBbtmJNh-A9zOE-0" />
        <mxCell id="9AlaRydBbtmJNh-A9zOE-2" value="" style="verticalLabelPosition=bottom;html=1;verticalAlign=top;align=center;shape=mxgraph.floorplan.doorOverhead;shadow=1;sketch=1;gradientColor=none;" vertex="1" parent="9AlaRydBbtmJNh-A9zOE-1">
          <mxGeometry x="147.5" y="480" width="90" height="220" as="geometry" />
        </mxCell>
        <mxCell id="9AlaRydBbtmJNh-A9zOE-3" value="" style="verticalLabelPosition=bottom;html=1;verticalAlign=top;align=center;shape=mxgraph.floorplan.doorOverhead;shadow=1;sketch=1;gradientColor=none;" vertex="1" parent="9AlaRydBbtmJNh-A9zOE-1">
          <mxGeometry x="227.5" y="480" width="90" height="220" as="geometry" />
        </mxCell>
        <mxCell id="9AlaRydBbtmJNh-A9zOE-4" value="" style="verticalLabelPosition=bottom;html=1;verticalAlign=top;align=center;shape=mxgraph.floorplan.doorOverhead;gradientColor=none;shadow=1;sketch=1;" vertex="1" parent="9AlaRydBbtmJNh-A9zOE-1">
          <mxGeometry x="90" y="84" width="160" height="286" as="geometry" />
        </mxCell>
        <mxCell id="9AlaRydBbtmJNh-A9zOE-5" value="3&#39;-6&quot;" style="shape=dimension;direction=west;whiteSpace=wrap;html=1;align=center;points=[];verticalAlign=top;spacingTop=-8;labelBackgroundColor=#ffffff" vertex="1" parent="9AlaRydBbtmJNh-A9zOE-1">
          <mxGeometry x="100" y="50" width="140" height="40" as="geometry" />
        </mxCell>
        <mxCell id="9AlaRydBbtmJNh-A9zOE-6" value="7&#39;-0&quot;" style="shape=dimension;direction=north;whiteSpace=wrap;html=1;align=right;points=[];verticalAlign=middle;labelBackgroundColor=#ffffff;shadow=0;sketch=0;gradientColor=none;" vertex="1" parent="9AlaRydBbtmJNh-A9zOE-1">
          <mxGeometry x="260" y="84" width="40" height="286" as="geometry" />
        </mxCell>
        <mxCell id="9AlaRydBbtmJNh-A9zOE-7" value="North&lt;br&gt;Main Door&lt;br&gt;&amp;amp;&lt;br&gt;Pooja Door&lt;br&gt;(2)" style="text;html=1;resizable=0;autosize=1;align=center;verticalAlign=middle;points=[];fillColor=none;strokeColor=none;rounded=0;shadow=1;sketch=1;" vertex="1" parent="9AlaRydBbtmJNh-A9zOE-1">
          <mxGeometry x="130" y="140" width="80" height="80" as="geometry" />
        </mxCell>
        <mxCell id="9AlaRydBbtmJNh-A9zOE-8" value="" style="verticalLabelPosition=bottom;html=1;verticalAlign=top;align=center;shape=mxgraph.floorplan.doorOverhead;shadow=1;sketch=1;gradientColor=none;" vertex="1" parent="9AlaRydBbtmJNh-A9zOE-1">
          <mxGeometry x="355" y="84" width="125" height="206" as="geometry" />
        </mxCell>
        <mxCell id="9AlaRydBbtmJNh-A9zOE-9" value="3&#39;-0&quot;" style="shape=dimension;direction=west;whiteSpace=wrap;html=1;align=center;points=[];verticalAlign=top;spacingTop=-8;labelBackgroundColor=#ffffff" vertex="1" parent="9AlaRydBbtmJNh-A9zOE-1">
          <mxGeometry x="367.5" y="50" width="100" height="40" as="geometry" />
        </mxCell>
        <mxCell id="9AlaRydBbtmJNh-A9zOE-10" value="5&#39;-0&quot;" style="shape=dimension;direction=north;whiteSpace=wrap;html=1;align=right;points=[];verticalAlign=middle;labelBackgroundColor=#ffffff;shadow=0;sketch=0;gradientColor=none;" vertex="1" parent="9AlaRydBbtmJNh-A9zOE-1">
          <mxGeometry x="490" y="84" width="40" height="206" as="geometry" />
        </mxCell>
        <mxCell id="9AlaRydBbtmJNh-A9zOE-11" value="North&lt;br&gt;Window&lt;br&gt;(1)" style="text;html=1;resizable=0;autosize=1;align=center;verticalAlign=middle;points=[];fillColor=none;strokeColor=none;rounded=0;shadow=1;sketch=1;" vertex="1" parent="9AlaRydBbtmJNh-A9zOE-1">
          <mxGeometry x="387.5" y="155" width="60" height="50" as="geometry" />
        </mxCell>
        <mxCell id="9AlaRydBbtmJNh-A9zOE-12" value="" style="verticalLabelPosition=bottom;html=1;verticalAlign=top;align=center;shape=mxgraph.floorplan.doorOverhead;shadow=1;sketch=1;gradientColor=none;" vertex="1" parent="9AlaRydBbtmJNh-A9zOE-1">
          <mxGeometry x="620" y="470" width="110" height="246" as="geometry" />
        </mxCell>
        <mxCell id="9AlaRydBbtmJNh-A9zOE-13" value="" style="verticalLabelPosition=bottom;html=1;verticalAlign=top;align=center;shape=mxgraph.floorplan.doorOverhead;shadow=1;sketch=1;gradientColor=none;" vertex="1" parent="9AlaRydBbtmJNh-A9zOE-1">
          <mxGeometry x="720" y="470" width="110" height="246" as="geometry" />
        </mxCell>
        <mxCell id="9AlaRydBbtmJNh-A9zOE-14" value="" style="verticalLabelPosition=bottom;html=1;verticalAlign=top;align=center;shape=mxgraph.floorplan.doorOverhead;shadow=1;sketch=1;gradientColor=none;" vertex="1" parent="9AlaRydBbtmJNh-A9zOE-1">
          <mxGeometry x="820" y="470" width="110" height="246" as="geometry" />
        </mxCell>
        <mxCell id="9AlaRydBbtmJNh-A9zOE-15" value="" style="verticalLabelPosition=bottom;html=1;verticalAlign=top;align=center;shape=mxgraph.floorplan.doorOverhead;shadow=1;sketch=1;gradientColor=none;" vertex="1" parent="9AlaRydBbtmJNh-A9zOE-1">
          <mxGeometry x="520" y="470" width="110" height="246" as="geometry" />
        </mxCell>
        <mxCell id="9AlaRydBbtmJNh-A9zOE-16" value="5&#39;-0&quot;" style="shape=dimension;direction=north;whiteSpace=wrap;html=1;align=right;points=[];verticalAlign=middle;labelBackgroundColor=#ffffff;shadow=0;sketch=0;gradientColor=none;" vertex="1" parent="9AlaRydBbtmJNh-A9zOE-1">
          <mxGeometry x="980" y="470" width="40" height="246" as="geometry" />
        </mxCell>
        <mxCell id="9AlaRydBbtmJNh-A9zOE-17" value="2&#39;-0&quot;" style="shape=dimension;direction=west;whiteSpace=wrap;html=1;align=center;points=[];verticalAlign=top;spacingTop=-8;labelBackgroundColor=#ffffff" vertex="1" parent="9AlaRydBbtmJNh-A9zOE-1">
          <mxGeometry x="530" y="440" width="90" height="40" as="geometry" />
        </mxCell>
        <mxCell id="9AlaRydBbtmJNh-A9zOE-18" value="2&#39;-0&quot;" style="shape=dimension;direction=west;whiteSpace=wrap;html=1;align=center;points=[];verticalAlign=top;spacingTop=-8;labelBackgroundColor=#ffffff" vertex="1" parent="9AlaRydBbtmJNh-A9zOE-1">
          <mxGeometry x="630" y="440" width="90" height="40" as="geometry" />
        </mxCell>
        <mxCell id="9AlaRydBbtmJNh-A9zOE-19" value="2&#39;-0&quot;" style="shape=dimension;direction=west;whiteSpace=wrap;html=1;align=center;points=[];verticalAlign=top;spacingTop=-8;labelBackgroundColor=#ffffff" vertex="1" parent="9AlaRydBbtmJNh-A9zOE-1">
          <mxGeometry x="730" y="440" width="90" height="40" as="geometry" />
        </mxCell>
        <mxCell id="9AlaRydBbtmJNh-A9zOE-20" value="2&#39;-0&quot;" style="shape=dimension;direction=west;whiteSpace=wrap;html=1;align=center;points=[];verticalAlign=top;spacingTop=-8;labelBackgroundColor=#ffffff" vertex="1" parent="9AlaRydBbtmJNh-A9zOE-1">
          <mxGeometry x="830" y="440" width="90" height="40" as="geometry" />
        </mxCell>
        <mxCell id="9AlaRydBbtmJNh-A9zOE-21" value="Surejya Room Window" style="text;html=1;resizable=0;autosize=1;align=center;verticalAlign=middle;points=[];fillColor=none;strokeColor=none;rounded=0;shadow=0;sketch=0;" vertex="1" parent="9AlaRydBbtmJNh-A9zOE-1">
          <mxGeometry x="670" y="570" width="140" height="20" as="geometry" />
        </mxCell>
        <mxCell id="9AlaRydBbtmJNh-A9zOE-22" value="" style="verticalLabelPosition=bottom;html=1;verticalAlign=top;align=center;shape=mxgraph.floorplan.doorOverhead;shadow=1;sketch=1;gradientColor=none;" vertex="1" parent="9AlaRydBbtmJNh-A9zOE-1">
          <mxGeometry x="595" y="84" width="95" height="166" as="geometry" />
        </mxCell>
        <mxCell id="9AlaRydBbtmJNh-A9zOE-23" value="2&#39;-0&quot;" style="shape=dimension;direction=west;whiteSpace=wrap;html=1;align=center;points=[];verticalAlign=top;spacingTop=-8;labelBackgroundColor=#ffffff" vertex="1" parent="9AlaRydBbtmJNh-A9zOE-1">
          <mxGeometry x="600" y="50" width="80" height="40" as="geometry" />
        </mxCell>
        <mxCell id="9AlaRydBbtmJNh-A9zOE-24" value="4&#39;-0&quot;" style="shape=dimension;direction=north;whiteSpace=wrap;html=1;align=right;points=[];verticalAlign=middle;labelBackgroundColor=#ffffff;shadow=0;sketch=0;gradientColor=none;" vertex="1" parent="9AlaRydBbtmJNh-A9zOE-1">
          <mxGeometry x="710" y="84" width="40" height="166" as="geometry" />
        </mxCell>
        <mxCell id="9AlaRydBbtmJNh-A9zOE-25" value="South &amp;amp; West&lt;br&gt;Windows&lt;br&gt;(5)" style="text;html=1;resizable=0;autosize=1;align=center;verticalAlign=middle;points=[];fillColor=none;strokeColor=none;rounded=0;shadow=0;sketch=0;" vertex="1" parent="9AlaRydBbtmJNh-A9zOE-1">
          <mxGeometry x="595" y="155" width="90" height="50" as="geometry" />
        </mxCell>
        <mxCell id="9AlaRydBbtmJNh-A9zOE-26" value="" style="verticalLabelPosition=bottom;html=1;verticalAlign=top;align=center;shape=mxgraph.floorplan.doorOverhead;shadow=1;sketch=1;gradientColor=none;" vertex="1" parent="9AlaRydBbtmJNh-A9zOE-1">
          <mxGeometry x="67.5" y="480" width="90" height="220" as="geometry" />
        </mxCell>
        <mxCell id="9AlaRydBbtmJNh-A9zOE-27" value="5&#39;-0&quot;" style="shape=dimension;direction=north;whiteSpace=wrap;html=1;align=right;points=[];verticalAlign=middle;labelBackgroundColor=#ffffff;shadow=0;sketch=0;gradientColor=none;" vertex="1" parent="9AlaRydBbtmJNh-A9zOE-1">
          <mxGeometry x="327.5" y="480" width="40" height="220" as="geometry" />
        </mxCell>
        <mxCell id="9AlaRydBbtmJNh-A9zOE-28" value="2&#39;-0&quot;" style="shape=dimension;direction=west;whiteSpace=wrap;html=1;align=center;points=[];verticalAlign=top;spacingTop=-8;labelBackgroundColor=#ffffff" vertex="1" parent="9AlaRydBbtmJNh-A9zOE-1">
          <mxGeometry x="77.5" y="450" width="70" height="40" as="geometry" />
        </mxCell>
        <mxCell id="9AlaRydBbtmJNh-A9zOE-29" value="2&#39;-0&quot;" style="shape=dimension;direction=west;whiteSpace=wrap;html=1;align=center;points=[];verticalAlign=top;spacingTop=-8;labelBackgroundColor=#ffffff" vertex="1" parent="9AlaRydBbtmJNh-A9zOE-1">
          <mxGeometry x="157.5" y="450" width="70" height="40" as="geometry" />
        </mxCell>
        <mxCell id="9AlaRydBbtmJNh-A9zOE-30" value="2&#39;-0&quot;" style="shape=dimension;direction=west;whiteSpace=wrap;html=1;align=center;points=[];verticalAlign=top;spacingTop=-8;labelBackgroundColor=#ffffff" vertex="1" parent="9AlaRydBbtmJNh-A9zOE-1">
          <mxGeometry x="237.5" y="450" width="70" height="40" as="geometry" />
        </mxCell>
        <mxCell id="9AlaRydBbtmJNh-A9zOE-31" value="" style="verticalLabelPosition=bottom;html=1;verticalAlign=top;align=center;shape=mxgraph.floorplan.doorOverhead;shadow=1;sketch=1;gradientColor=none;" vertex="1" parent="9AlaRydBbtmJNh-A9zOE-1">
          <mxGeometry x="800" y="84" width="125" height="76" as="geometry" />
        </mxCell>
        <mxCell id="9AlaRydBbtmJNh-A9zOE-32" value="3&#39;-0&quot;" style="shape=dimension;direction=west;whiteSpace=wrap;html=1;align=center;points=[];verticalAlign=top;spacingTop=-8;labelBackgroundColor=#ffffff" vertex="1" parent="9AlaRydBbtmJNh-A9zOE-1">
          <mxGeometry x="812.5" y="50" width="100" height="40" as="geometry" />
        </mxCell>
        <mxCell id="9AlaRydBbtmJNh-A9zOE-33" value="2&#39;-0&quot;" style="shape=dimension;direction=north;whiteSpace=wrap;html=1;align=right;points=[];verticalAlign=middle;labelBackgroundColor=#ffffff;shadow=0;sketch=0;gradientColor=none;" vertex="1" parent="9AlaRydBbtmJNh-A9zOE-1">
          <mxGeometry x="940" y="84" width="40" height="76" as="geometry" />
        </mxCell>
        <mxCell id="9AlaRydBbtmJNh-A9zOE-34" value="Pooja &amp;amp; Kitchen&lt;br&gt;Window&lt;br&gt;(2)" style="text;html=1;resizable=0;autosize=1;align=center;verticalAlign=middle;points=[];fillColor=none;strokeColor=none;rounded=0;shadow=0;sketch=0;" vertex="1" parent="9AlaRydBbtmJNh-A9zOE-1">
          <mxGeometry x="812.5" y="97" width="100" height="50" as="geometry" />
        </mxCell>
        <mxCell id="9AlaRydBbtmJNh-A9zOE-35" value="" style="verticalLabelPosition=bottom;html=1;verticalAlign=top;align=center;shape=mxgraph.floorplan.doorOverhead;shadow=1;sketch=1;gradientColor=none;" vertex="1" parent="9AlaRydBbtmJNh-A9zOE-1">
          <mxGeometry x="800" y="239" width="125" height="61" as="geometry" />
        </mxCell>
        <mxCell id="9AlaRydBbtmJNh-A9zOE-36" value="3&#39;-0&quot;" style="shape=dimension;direction=west;whiteSpace=wrap;html=1;align=center;points=[];verticalAlign=top;spacingTop=-8;labelBackgroundColor=#ffffff" vertex="1" parent="9AlaRydBbtmJNh-A9zOE-1">
          <mxGeometry x="812.5" y="205" width="100" height="40" as="geometry" />
        </mxCell>
        <mxCell id="9AlaRydBbtmJNh-A9zOE-37" value="1&#39;-6&quot;" style="shape=dimension;direction=north;whiteSpace=wrap;html=1;align=right;points=[];verticalAlign=middle;labelBackgroundColor=#ffffff;shadow=0;sketch=0;gradientColor=none;" vertex="1" parent="9AlaRydBbtmJNh-A9zOE-1">
          <mxGeometry x="940" y="239" width="40" height="61" as="geometry" />
        </mxCell>
        <mxCell id="9AlaRydBbtmJNh-A9zOE-38" value="Bathroom &amp;amp; Store&lt;br&gt;Ventilator&lt;br&gt;(4)" style="text;html=1;resizable=0;autosize=1;align=center;verticalAlign=middle;points=[];fillColor=none;strokeColor=none;rounded=0;shadow=0;sketch=0;" vertex="1" parent="9AlaRydBbtmJNh-A9zOE-1">
          <mxGeometry x="807.5" y="245" width="110" height="50" as="geometry" />
        </mxCell>
        <mxCell id="9AlaRydBbtmJNh-A9zOE-39" value="Dining Room&lt;br&gt;Window&lt;br&gt;(1)" style="text;html=1;resizable=0;autosize=1;align=center;verticalAlign=middle;points=[];fillColor=none;strokeColor=none;rounded=0;shadow=0;sketch=0;" vertex="1" parent="9AlaRydBbtmJNh-A9zOE-1">
          <mxGeometry x="152.5" y="565" width="80" height="50" as="geometry" />
        </mxCell>
      </root>
    </mxGraphModel>
  </diagram>
</mxfile>
